<svg xmlns="http://www.w3.org/2000/svg" viewBox="0 0 320 220" width="320" height="220">
  <rect width="320" height="220" rx="8" fill="#101010" stroke="rgba(255,255,255,0.09)" stroke-width="1"/>
  <rect width="320" height="38" rx="8" fill="#141414"/>
  <rect y="30" width="320" height="8" fill="#141414"/>
  <rect y="37" width="320" height="1" fill="rgba(255,255,255,0.06)"/>
  <image href="lumyn.svg" x="12" y="9" width="20" height="20"/>
  <text x="40" y="24" font-family="system-ui,sans-serif" font-size="11" font-weight="700" fill="#DEDAD5">sample-video.mkv — Lumyn</text>
  <circle cx="285" cy="19" r="5.5" fill="#4c4c4c"/>
  <circle cx="299" cy="19" r="5.5" fill="#4c4c4c"/>
  <circle cx="313" cy="19" r="5.5" fill="#4c4c4c"/>

  <rect x="0" y="38" width="320" height="130" fill="#151515"/>
  <radialGradient id="glow-pl" cx="20%" cy="30%" r="60%">
    <stop offset="0%" stop-color="#3a9b4b" stop-opacity="0.25"/>
    <stop offset="100%" stop-color="#151515" stop-opacity="0"/>
  </radialGradient>
  <rect x="0" y="38" width="320" height="130" fill="url(#glow-pl)"/>

  <!-- Playlist sidebar -->
  <rect x="196" y="38" width="124" height="130" fill="#141414" stroke="rgba(255,255,255,0.06)" stroke-width="1"/>
  <text x="208" y="56" font-family="system-ui,sans-serif" font-size="9" font-weight="700" fill="#C8C3C2">Queue</text>
  <!-- queue items -->
  <rect x="202" y="62" width="112" height="18" rx="3" fill="#1E1E1E" stroke="rgba(58,155,75,0.5)" stroke-width="1"/>
  <rect x="205" y="65" width="3" height="12" rx="1" fill="#3a9b4b"/>
  <text x="213" y="75" font-family="system-ui,sans-serif" font-size="8" font-weight="600" fill="#F7F5F3">movie-part1.mkv</text>

  <rect x="202" y="84" width="112" height="18" rx="3" fill="#1A1A1A"/>
  <text x="208" y="97" font-family="system-ui,sans-serif" font-size="8" fill="#807C79">movie-part2.mkv</text>

  <rect x="202" y="106" width="112" height="18" rx="3" fill="#1A1A1A"/>
  <text x="208" y="119" font-family="system-ui,sans-serif" font-size="8" fill="#807C79">movie-part3.mkv</text>

  <rect x="202" y="128" width="112" height="18" rx="3" fill="#1A1A1A"/>
  <text x="208" y="141" font-family="system-ui,sans-serif" font-size="8" fill="#807C79">bonus-scene.mkv</text>

  <!-- left content -->
  <text x="20" y="110" font-family="system-ui,sans-serif" font-size="14" font-weight="800" fill="#F7F5F3" opacity="0.85">Playlist</text>
  <text x="20" y="127" font-family="system-ui,sans-serif" font-size="9" fill="#807C79">Queue up your watch session</text>

  <rect x="0" y="168" width="320" height="52" fill="url(#ctrl-grad-pl)"/>
  <linearGradient id="ctrl-grad-pl" x1="0" y1="0" x2="0" y2="1">
    <stop offset="0%" stop-color="#111111"/>
    <stop offset="100%" stop-color="#050505"/>
  </linearGradient>
  <rect x="14" y="174" width="292" height="5" rx="2.5" fill="#3a3a3a"/>
  <rect x="14" y="174" width="80" height="5" rx="2.5" fill="#3a9b4b"/>
  <text x="14" y="198" font-family="system-ui,sans-serif" font-size="9" font-weight="700" fill="#6A6560">00:42</text>
  <rect x="134" y="189" width="14" height="14" rx="2" fill="#807C79" opacity="0.82"/>
  <rect x="153" y="189" width="14" height="14" rx="2" fill="#807C79" opacity="0.82"/>
  <rect x="172" y="189" width="14" height="14" rx="2" fill="#807C79" opacity="0.82"/>
  <rect x="191" y="189" width="14" height="14" rx="2" fill="#807C79" opacity="0.82"/>
  <text x="294" y="198" font-family="system-ui,sans-serif" font-size="9" font-weight="700" fill="#6A6560" text-anchor="end">1:28:04</text>
</svg>
