<svg xmlns="http://www.w3.org/2000/svg" viewBox="0 0 320 220" width="320" height="220">
  <rect width="320" height="220" rx="8" fill="#101010" stroke="rgba(255,255,255,0.09)" stroke-width="1"/>
  <rect width="320" height="38" rx="8" fill="#141414"/>
  <rect y="30" width="320" height="8" fill="#141414"/>
  <rect y="37" width="320" height="1" fill="rgba(255,255,255,0.06)"/>
  <g transform="translate(12,9) scale(0.078125)" fill="none"><path d="M22 71.5L135 19" stroke="#3A9B4B" stroke-width="18" stroke-linecap="round"/><path d="M22 103.5L234 5" stroke="#3A9B4B" stroke-width="18" stroke-linecap="round"/><path d="M22 135.5L234 37" stroke="#3A9B4B" stroke-width="18" stroke-linecap="round"/><path d="M22 167.5L234 69" stroke="#3A9B4B" stroke-width="18" stroke-linecap="round"/><path d="M155 118L229 83.5" stroke="#3A9B4B" stroke-width="18" stroke-linecap="round"/><path d="M96 118V181H62L67 207H189L194 181H159V130" stroke="#3A9B4B" stroke-width="18" stroke-linecap="round" stroke-linejoin="round"/><path d="M71 217L184 197" stroke="#3A9B4B" stroke-width="12" stroke-linecap="round"/><path d="M75 239L176 221" stroke="#3A9B4B" stroke-width="12" stroke-linecap="round"/><path d="M112 150C112 147.7 114.5 146.3 116.5 147.5L142.5 163.2C145.5 165 145.5 170 142.5 171.8L116.5 187.5C114.5 188.7 112 187.3 112 185V150Z" fill="#D8D4CF"/></g>
  <text x="40" y="24" font-family="system-ui,sans-serif" font-size="11" font-weight="700" fill="#DEDAD5">sample-video.mp4 — Lumyn</text>
  <circle cx="272" cy="19" r="5.5" fill="#4c4c4c"/>
  <circle cx="286" cy="19" r="5.5" fill="#4c4c4c"/>
  <circle cx="300" cy="19" r="5.5" fill="#4c4c4c"/>

  <rect x="0" y="38" width="320" height="130" fill="#151515"/>
  <radialGradient id="glow-cast" cx="20%" cy="30%" r="60%">
    <stop offset="0%" stop-color="#3a9b4b" stop-opacity="0.25"/>
    <stop offset="100%" stop-color="#151515" stop-opacity="0"/>
  </radialGradient>
  <rect x="0" y="38" width="320" height="130" fill="url(#glow-cast)"/>

  <!-- cast dialog -->
  <rect x="45" y="48" width="230" height="110" rx="6" fill="#1A1A1A" stroke="rgba(255,255,255,0.08)" stroke-width="1"/>
  <text x="57" y="64" font-family="system-ui,sans-serif" font-size="9" font-weight="700" fill="#DEDAD5">Cast to Device</text>
  <line x1="52" y1="69" x2="268" y2="69" stroke="rgba(255,255,255,0.07)" stroke-width="1"/>

  <!-- device list -->
  <!-- device 1 - selected -->
  <rect x="57" y="76" width="180" height="18" rx="3" fill="#2A3A2E" stroke="rgba(58,155,75,0.5)" stroke-width="1"/>
  <!-- cast icon small in device row -->
  <g transform="translate(67,85)">
    <path d="M-6,-4 L-6,4 M-3,-3 L-3,3 M0,-2 L0,2" stroke="#3A9B4B" stroke-width="1" stroke-linecap="round" fill="none"/>
  </g>
  <text x="75" y="88" font-family="system-ui,sans-serif" font-size="8" font-weight="600" fill="#F7F5F3">Living Room TV</text>
  <text x="195" y="87" font-family="system-ui,sans-serif" font-size="7" fill="#3a9b4b">Connected</text>

  <!-- device 2 -->
  <rect x="57" y="100" width="180" height="16" rx="3" fill="#252525" stroke="rgba(255,255,255,0.08)" stroke-width="1"/>
  <circle cx="64" cy="108" r="2.5" fill="#4a4a4a"/>
  <text x="74" y="111" font-family="system-ui,sans-serif" font-size="8" fill="#807C79">Bedroom Speaker</text>
  <text x="200" y="111" font-family="system-ui,sans-serif" font-size="7" fill="#6A6560">Available</text>

  <!-- status bar -->
  <rect x="57" y="122" width="180" height="24" rx="3" fill="#1E2A1E" stroke="rgba(58,155,75,0.3)" stroke-width="1"/>
  <text x="62" y="132" font-family="system-ui,sans-serif" font-size="7" fill="#6A9B6A">Casting sample-video.mp4</text>
  <text x="62" y="142" font-family="system-ui,sans-serif" font-size="7" fill="#3a9b4b">● 1080p • 5.1 audio • 30 fps • Ready to cast</text>

  <rect x="0" y="168" width="320" height="52" fill="url(#ctrl-grad-cast)"/>
  <linearGradient id="ctrl-grad-cast" x1="0" y1="0" x2="0" y2="1">
    <stop offset="0%" stop-color="#111111"/>
    <stop offset="100%" stop-color="#050505"/>
  </linearGradient>
  <rect x="14" y="174" width="292" height="5" rx="2.5" fill="#3a3a3a"/>
  <rect x="14" y="174" width="100" height="5" rx="2.5" fill="#3a9b4b"/>
  <text x="14" y="198" font-family="system-ui,sans-serif" font-size="9" font-weight="700" fill="#6A6560">05:34</text>
  <rect x="134" y="189" width="14" height="14" rx="2" fill="#807C79" opacity="0.82"/>
  <rect x="153" y="189" width="14" height="14" rx="2" fill="#807C79" opacity="0.82"/>
  <rect x="172" y="189" width="14" height="14" rx="2" fill="#807C79" opacity="0.82"/>
  <rect x="191" y="189" width="14" height="14" rx="2" fill="#807C79" opacity="0.82"/>
  <text x="294" y="198" font-family="system-ui,sans-serif" font-size="9" font-weight="700" fill="#6A6560" text-anchor="end">1:28:04</text>
</svg>
