<svg width="512" height="512" viewBox="0 0 256 256" fill="none" xmlns="http://www.w3.org/2000/svg">
  <title>Lumyn</title>
  <rect width="256" height="256" rx="54" fill="#2C001E"/>
  <path d="M22 71.5L135 19" stroke="#E95420" stroke-width="18" stroke-linecap="round"/>
  <path d="M22 103.5L234 5" stroke="#E95420" stroke-width="18" stroke-linecap="round"/>
  <path d="M22 135.5L234 37" stroke="#E95420" stroke-width="18" stroke-linecap="round"/>
  <path d="M22 167.5L234 69" stroke="#E95420" stroke-width="18" stroke-linecap="round"/>
  <path d="M155 118L229 83.5" stroke="#E95420" stroke-width="18" stroke-linecap="round"/>
  <path d="M96 118V181H62L67 207H189L194 181H159V130" stroke="#E95420" stroke-width="18" stroke-linecap="round" stroke-linejoin="round"/>
  <path d="M71 217L184 197" stroke="#E95420" stroke-width="12" stroke-linecap="round"/>
  <path d="M75 239L176 221" stroke="#E95420" stroke-width="12" stroke-linecap="round"/>
  <path d="M119 150C119 147.7 121.5 146.3 123.5 147.5L149.5 163.2C152.5 165 152.5 170 149.5 171.8L123.5 187.5C121.5 188.7 119 187.3 119 185V150Z" fill="#F7F5F3"/>
</svg>
